<?xml version="1.0" encoding="UTF-8" standalone="no"?>
<svg width="176px" height="121px" viewBox="0 0 176 121" version="1.1" xmlns="http://www.w3.org/2000/svg" xmlns:xlink="http://www.w3.org/1999/xlink" xmlns:sketch="http://www.bohemiancoding.com/sketch/ns">
    <!-- Generator: Sketch 3.3 (11970) - http://www.bohemiancoding.com/sketch -->
    <title>Imported Layers</title>
    <desc>Created with Sketch.</desc>
    <defs></defs>
    <g id="ICONS" stroke="none" stroke-width="1" fill="none" fill-rule="evenodd" sketch:type="MSPage">
        <path d="M119.459908,53.9587333 L172.813354,2.3698 C174.322246,3.854 175.261538,5.91766667 175.261538,8.2 L175.261538,112.066667 C175.261538,114.223267 174.409877,116.172133 173.046123,117.634467 L119.459908,53.9587333 L119.459908,53.9587333 Z M2.73298462,2.132 C4.18984615,0.82 6.09855385,0 8.21538462,0 L167.046154,0 C169.162985,0 171.071692,0.82 172.528554,2.132 L87.6307692,68.3333333 L2.73298462,2.132 L2.73298462,2.132 Z M2.21541538,117.634467 C0.851661538,116.172133 0,114.223267 0,112.066667 L0,8.2 C0,5.91766667 0.939292308,3.854 2.44818462,2.3698 L55.8043692,53.9587333 L2.21541538,117.634467 L2.21541538,117.634467 Z M87.6307692,84.7333333 L109.910892,63.1919333 L172.679169,118.011667 C171.205877,119.402933 169.231446,120.266667 167.046154,120.266667 L8.21538462,120.266667 C6.03009231,120.266667 4.05566154,119.402933 2.58236923,118.011667 L65.3506462,63.1919333 L87.6307692,84.7333333 L87.6307692,84.7333333 Z" id="Imported-Layers" fill="#F84F5E" sketch:type="MSShapeGroup"></path>
    </g>
</svg>