<?xml version="1.0" encoding="UTF-8" standalone="no"?>
<svg width="136px" height="136px" viewBox="0 0 136 136" version="1.1" xmlns="http://www.w3.org/2000/svg" xmlns:xlink="http://www.w3.org/1999/xlink" xmlns:sketch="http://www.bohemiancoding.com/sketch/ns">
    <!-- Generator: Sketch 3.3 (11970) - http://www.bohemiancoding.com/sketch -->
    <title>Imported Layers</title>
    <desc>Created with Sketch.</desc>
    <defs></defs>
    <g id="ICONS" stroke="none" stroke-width="1" fill="none" fill-rule="evenodd" sketch:type="MSPage">
        <path d="M125.470625,135.785152 L10.474125,135.785152 C4.689875,135.785152 0,131.536364 0,125.758182 L0,10.4618182 C0,4.68363636 4.689875,0 10.474125,0 L125.470625,0 C131.257,0 135.94475,4.68363636 135.94475,10.4618182 L135.94475,125.758182 C135.94475,131.536364 131.257,135.785152 125.470625,135.785152 L125.470625,135.785152 Z M98.134625,21.5939394 C91.113625,21.5939394 84.30725,22.7139394 79.71725,24.949697 C75.12725,27.1875758 71.8165,31.1478788 70.105875,34.7072727 C68.39525,38.2687879 67.541,42.600303 67.541,49.8293939 L67.541,56.6893939 L56.034125,56.6893939 L56.034125,74.6730303 L67.541,74.6730303 L67.541,134.410606 L92.13575,134.410606 L92.13575,74.6730303 L107.474,74.6730303 L111.724,56.6893939 L92.13575,56.6893939 L92.13575,50.2324242 C92.13575,45.8648485 92.9305,42.91 94.52,41.3742424 C96.1095,39.8363636 99.265125,38.9178788 102.9265,38.9178788 C106.64525,38.9178788 109.630875,40.6487879 113.38575,42.8378788 L117.867375,25.9190909 C110.9675,23.9781818 105.334125,21.5939394 98.134625,21.5939394 L98.134625,21.5939394 Z" id="Imported-Layers" fill="#FFFFFF" sketch:type="MSShapeGroup"></path>
    </g>
</svg>