<?xml version="1.0" encoding="UTF-8" standalone="no"?>
<svg width="138px" height="138px" viewBox="0 0 138 138" version="1.1" xmlns="http://www.w3.org/2000/svg" xmlns:xlink="http://www.w3.org/1999/xlink" xmlns:sketch="http://www.bohemiancoding.com/sketch/ns">
    <!-- Generator: Sketch 3.3 (11970) - http://www.bohemiancoding.com/sketch -->
    <title>Imported Layers</title>
    <desc>Created with Sketch.</desc>
    <defs></defs>
    <g id="ICONS" stroke="none" stroke-width="1" fill="none" fill-rule="evenodd" sketch:type="MSPage">
        <path d="M120.615385,137.846154 L17.2307692,137.846154 C7.71507692,137.846154 0,130.133231 0,120.615385 L0,17.2307692 C0,7.71507692 7.71507692,0 17.2307692,0 L120.615385,0 C130.131077,0 137.846154,7.71507692 137.846154,17.2307692 L137.846154,120.615385 C137.846154,130.133231 130.131077,137.846154 120.615385,137.846154 L120.615385,137.846154 Z M68.9230769,42.2153846 C58.1775385,42.2153846 48.9396923,48.5756923 44.7009231,57.7230769 L44.6772308,57.7230769 C44.6341538,57.82 44.604,57.9212308 44.5609231,58.0181538 C44.3067692,58.5846154 44.0827692,59.164 43.8673846,59.7498462 C43.764,60.0298462 43.6541538,60.3033846 43.5615385,60.5876923 C43.3633846,61.1843077 43.2018462,61.7981538 43.0467692,62.4163077 C42.9756923,62.7027692 42.8895385,62.9870769 42.8249231,63.2778462 C42.6849231,63.9283077 42.588,64.5938462 42.4953846,65.2593846 C42.4587692,65.5286154 42.4027692,65.7913846 42.3726154,66.0649231 C42.2735385,67.004 42.2153846,67.956 42.2153846,68.9230769 C42.2153846,83.6747692 54.1735385,95.6307692 68.9230769,95.6307692 C83.6726154,95.6307692 95.6307692,83.6747692 95.6307692,68.9230769 C95.6307692,67.956 95.5726154,67.004 95.4735385,66.0649231 C95.4455385,65.7913846 95.3873846,65.5286154 95.3507692,65.2593846 C95.2581538,64.5938462 95.1612308,63.9283077 95.0212308,63.2778462 C94.9566154,62.9870769 94.8704615,62.7027692 94.7993846,62.4163077 C94.6443077,61.7981538 94.4827692,61.1843077 94.2846154,60.5876923 C94.192,60.3033846 94.0821538,60.0298462 93.9787692,59.7498462 C93.7655385,59.164 93.5393846,58.5846154 93.2873846,58.0181538 C93.2443077,57.9212308 93.212,57.82 93.1689231,57.7230769 L93.1452308,57.7230769 C88.9064615,48.5756923 79.6686154,42.2153846 68.9230769,42.2153846 L68.9230769,42.2153846 Z M122.338462,22.4 C122.338462,18.5941538 119.252,15.5076923 115.446154,15.5076923 L101.661538,15.5076923 C97.8556923,15.5076923 94.7692308,18.5941538 94.7692308,22.4 L94.7692308,36.1846154 C94.7692308,39.9926154 97.8556923,43.0769231 101.661538,43.0769231 L115.446154,43.0769231 C119.252,43.0769231 122.338462,39.9926154 122.338462,36.1846154 L122.338462,22.4 L122.338462,22.4 Z M122.338462,57.7230769 L109.632923,57.7230769 C110.612923,61.292 111.138462,65.0461538 111.138462,68.9230769 C111.138462,92.2384615 92.2384615,111.138462 68.9230769,111.138462 C45.6076923,111.138462 26.7076923,92.2384615 26.7076923,68.9230769 C26.7076923,65.0461538 27.2332308,61.292 28.2132308,57.7230769 L15.5076923,57.7230769 L15.5076923,115.446154 C15.5076923,119.254154 18.5941538,122.338462 22.4,122.338462 L115.446154,122.338462 C119.252,122.338462 122.338462,119.254154 122.338462,115.446154 L122.338462,57.7230769 L122.338462,57.7230769 Z" id="Imported-Layers" fill="#FFFFFF" sketch:type="MSShapeGroup"></path>
    </g>
</svg>