<?xml version="1.0" encoding="UTF-8" standalone="no"?>
<svg width="254px" height="96px" viewBox="0 0 254 96" version="1.1" xmlns="http://www.w3.org/2000/svg" xmlns:xlink="http://www.w3.org/1999/xlink" xmlns:sketch="http://www.bohemiancoding.com/sketch/ns">
    <!-- Generator: Sketch 3.3 (11970) - http://www.bohemiancoding.com/sketch -->
    <title>Rectangle 4 + Oval 3 + tap + tap + Tappi</title>
    <desc>Created with Sketch.</desc>
    <defs>
        <linearGradient x1="10.8524446%" y1="78.6038306%" x2="83.1842238%" y2="13.7852823%" id="linearGradient-1">
            <stop stop-color="#FF274F" offset="0%"></stop>
            <stop stop-color="#FF6767" offset="100%"></stop>
        </linearGradient>
    </defs>
    <g id="Website" stroke="none" stroke-width="1" fill="none" fill-rule="evenodd" sketch:type="MSPage">
        <g id="Desktop-HD" sketch:type="MSArtboardGroup" transform="translate(-232.000000, -198.000000)">
            <g id="Rectangle-4-+-Oval-3-+-tap-+-tap-+-Tappi" sketch:type="MSLayerGroup" transform="translate(232.000000, 198.000000)">
                <g id="Rectangle-4-+-Oval-3-+-tap-+-tap">
                    <g>
                        <rect id="Rectangle-4" fill="#FFFFFF" sketch:type="MSShapeGroup" x="0" y="0" width="96" height="96" rx="24"></rect>
                        <g id="Oval-3-+-tap-+-tap" transform="translate(9.066667, 9.066667)">
                            <g id="Oval-3-+-tap" fill="url(#linearGradient-1)" sketch:type="MSShapeGroup">
                                <ellipse id="Oval-3" cx="38.9333333" cy="38.9333333" rx="38.6666667" ry="38.6666667"></ellipse>
                            </g>
                            <text id="tap" sketch:type="MSTextLayer" transform="translate(39.666667, 36.366667) rotate(-25.000000) translate(-39.666667, -36.366667) " font-family="Helvetica Neue" font-size="37.3333333" font-weight="bold" fill="#FFFFFF">
                                <tspan x="10.6666667" y="49.8666667">tap</tspan>
                            </text>
                        </g>
                    </g>
                </g>
                <path d="M124.16,27.94 L124.16,25.66 L156.98,25.66 L156.98,27.94 L141.86,27.94 L141.86,68.5 L139.22,68.5 L139.22,27.94 L124.16,27.94 Z M174.2,62.38 L174.08,62.38 C173.719998,63.3000046 173.200003,64.1699959 172.52,64.99 C171.839997,65.8100041 171.010005,66.5399968 170.03,67.18 C169.049995,67.8200032 167.940006,68.3199982 166.7,68.68 C165.459994,69.0400018 164.100007,69.22 162.62,69.22 C159.339984,69.22 156.800009,68.5100071 155,67.09 C153.199991,65.6699929 152.3,63.4800148 152.3,60.52 C152.3,58.719991 152.659996,57.2500057 153.38,56.11 C154.100004,54.9699943 155.009994,54.0700033 156.11,53.41 C157.210005,52.7499967 158.429993,52.2800014 159.77,52 C161.110007,51.7199986 162.399994,51.5200006 163.64,51.4 L167.18,51.1 C168.820008,50.9799994 170.109995,50.7900013 171.05,50.53 C171.990005,50.2699987 172.699998,49.9100023 173.18,49.45 C173.660002,48.9899977 173.959999,48.4000036 174.08,47.68 C174.200001,46.9599964 174.26,46.0600054 174.26,44.98 C174.26,44.1399958 174.100002,43.3600036 173.78,42.64 C173.459998,41.9199964 172.960003,41.2800028 172.28,40.72 C171.599997,40.1599972 170.720005,39.7200016 169.64,39.4 C168.559995,39.0799984 167.240008,38.92 165.68,38.92 C162.919986,38.92 160.690008,39.5999932 158.99,40.96 C157.289991,42.3200068 156.360001,44.3799862 156.2,47.14 L153.92,47.14 C154.080001,43.739983 155.16999,41.1900085 157.19,39.49 C159.21001,37.7899915 162.079981,36.94 165.8,36.94 C169.520019,36.94 172.229991,37.6699927 173.93,39.13 C175.630008,40.5900073 176.48,42.4999882 176.48,44.86 L176.48,62.8 C176.48,63.2400022 176.49,63.6799978 176.51,64.12 C176.53,64.5600022 176.599999,64.9599982 176.72,65.32 C176.840001,65.6800018 177.039999,65.9699989 177.32,66.19 C177.600001,66.4100011 177.999997,66.52 178.52,66.52 C178.920002,66.52 179.479996,66.4600006 180.2,66.34 L180.2,68.26 C179.599997,68.4200008 178.980003,68.5 178.34,68.5 C177.419995,68.5 176.690003,68.3800012 176.15,68.14 C175.609997,67.8999988 175.200001,67.580002 174.92,67.18 C174.639999,66.779998 174.45,66.3100027 174.35,65.77 C174.249999,65.2299973 174.2,64.6400032 174.2,64 L174.2,62.38 Z M174.2,50.98 C173.639997,51.6600034 172.790006,52.1199988 171.65,52.36 C170.509994,52.6000012 169.240007,52.7799994 167.84,52.9 L164,53.26 C162.879994,53.3800006 161.760006,53.5499989 160.64,53.77 C159.519994,53.9900011 158.510004,54.3599974 157.61,54.88 C156.709995,55.4000026 155.980003,56.1099955 155.42,57.01 C154.859997,57.9100045 154.58,59.0799928 154.58,60.52 C154.58,62.8000114 155.299993,64.4899945 156.74,65.59 C158.180007,66.6900055 160.159987,67.24 162.68,67.24 C165.280013,67.24 167.339992,66.7700047 168.86,65.83 C170.380008,64.8899953 171.539996,63.8100061 172.34,62.59 C173.140004,61.3699939 173.649999,60.1900057 173.87,59.05 C174.090001,57.9099943 174.2,57.140002 174.2,56.74 L174.2,50.98 Z M186.56,44.74 L186.68,44.74 C186.920001,43.9799962 187.319997,43.1400046 187.88,42.22 C188.440003,41.2999954 189.179995,40.4500039 190.1,39.67 C191.020005,38.8899961 192.129993,38.2400026 193.43,37.72 C194.730006,37.1999974 196.219992,36.94 197.9,36.94 C200.260012,36.94 202.309991,37.3799956 204.05,38.26 C205.790009,39.1400044 207.229994,40.3199926 208.37,41.8 C209.510006,43.2800074 210.359997,44.9999902 210.92,46.96 C211.480003,48.9200098 211.76,50.9799892 211.76,53.14 C211.76,55.5000118 211.480003,57.6599902 210.92,59.62 C210.359997,61.5800098 209.510006,63.2699929 208.37,64.69 C207.229994,66.1100071 205.790009,67.219996 204.05,68.02 C202.309991,68.820004 200.260012,69.22 197.9,69.22 C195.339987,69.22 193.06001,68.6600056 191.06,67.54 C189.05999,66.4199944 187.600005,64.6000126 186.68,62.08 L186.56,62.08 L186.56,79.54 L184.28,79.54 L184.28,37.66 L186.56,37.66 L186.56,44.74 Z M197.9,67.24 C199.90001,67.24 201.629993,66.8600038 203.09,66.1 C204.550007,65.3399962 205.749995,64.3200064 206.69,63.04 C207.630005,61.7599936 208.329998,60.2700085 208.79,58.57 C209.250002,56.8699915 209.48,55.0600096 209.48,53.14 C209.48,51.3799912 209.260002,49.6500085 208.82,47.95 C208.379998,46.2499915 207.700005,44.7300067 206.78,43.39 C205.859995,42.0499933 204.670007,40.9700041 203.21,40.15 C201.749993,39.3299959 199.98001,38.92 197.9,38.92 C195.85999,38.92 194.120007,39.319996 192.68,40.12 C191.239993,40.920004 190.070004,41.9799934 189.17,43.3 C188.269995,44.6200066 187.620002,46.1299915 187.22,47.83 C186.819998,49.5300085 186.62,51.2999908 186.62,53.14 C186.62,54.9800092 186.799998,56.7499915 187.16,58.45 C187.520002,60.1500085 188.129996,61.6499935 188.99,62.95 C189.850004,64.2500065 191.009993,65.2899961 192.47,66.07 C193.930007,66.8500039 195.739989,67.24 197.9,67.24 L197.9,67.24 Z M219.92,44.74 L220.04,44.74 C220.280001,43.9799962 220.679997,43.1400046 221.24,42.22 C221.800003,41.2999954 222.539995,40.4500039 223.46,39.67 C224.380005,38.8899961 225.489993,38.2400026 226.79,37.72 C228.090006,37.1999974 229.579992,36.94 231.26,36.94 C233.620012,36.94 235.669991,37.3799956 237.41,38.26 C239.150009,39.1400044 240.589994,40.3199926 241.73,41.8 C242.870006,43.2800074 243.719997,44.9999902 244.28,46.96 C244.840003,48.9200098 245.12,50.9799892 245.12,53.14 C245.12,55.5000118 244.840003,57.6599902 244.28,59.62 C243.719997,61.5800098 242.870006,63.2699929 241.73,64.69 C240.589994,66.1100071 239.150009,67.219996 237.41,68.02 C235.669991,68.820004 233.620012,69.22 231.26,69.22 C228.699987,69.22 226.42001,68.6600056 224.42,67.54 C222.41999,66.4199944 220.960005,64.6000126 220.04,62.08 L219.92,62.08 L219.92,79.54 L217.64,79.54 L217.64,37.66 L219.92,37.66 L219.92,44.74 Z M231.26,67.24 C233.26001,67.24 234.989993,66.8600038 236.45,66.1 C237.910007,65.3399962 239.109995,64.3200064 240.05,63.04 C240.990005,61.7599936 241.689998,60.2700085 242.15,58.57 C242.610002,56.8699915 242.84,55.0600096 242.84,53.14 C242.84,51.3799912 242.620002,49.6500085 242.18,47.95 C241.739998,46.2499915 241.060005,44.7300067 240.14,43.39 C239.219995,42.0499933 238.030007,40.9700041 236.57,40.15 C235.109993,39.3299959 233.34001,38.92 231.26,38.92 C229.21999,38.92 227.480007,39.319996 226.04,40.12 C224.599993,40.920004 223.430004,41.9799934 222.53,43.3 C221.629995,44.6200066 220.980002,46.1299915 220.58,47.83 C220.179998,49.5300085 219.98,51.2999908 219.98,53.14 C219.98,54.9800092 220.159998,56.7499915 220.52,58.45 C220.880002,60.1500085 221.489996,61.6499935 222.35,62.95 C223.210004,64.2500065 224.369993,65.2899961 225.83,66.07 C227.290007,66.8500039 229.099989,67.24 231.26,67.24 L231.26,67.24 Z M251,31.84 L251,25.66 L253.28,25.66 L253.28,31.84 L251,31.84 Z M251,68.5 L251,37.66 L253.28,37.66 L253.28,68.5 L251,68.5 Z" id="Tappi" stroke="#FFFFFF" stroke-width="0.2" fill="#FFFFFF" sketch:type="MSShapeGroup"></path>
            </g>
        </g>
    </g>
</svg>