<?xml version="1.0" encoding="UTF-8" standalone="no"?>
<svg width="161px" height="130px" viewBox="0 0 161 130" version="1.1" xmlns="http://www.w3.org/2000/svg" xmlns:xlink="http://www.w3.org/1999/xlink" xmlns:sketch="http://www.bohemiancoding.com/sketch/ns">
    <!-- Generator: Sketch 3.3 (11970) - http://www.bohemiancoding.com/sketch -->
    <title>Imported Layers</title>
    <desc>Created with Sketch.</desc>
    <defs></defs>
    <g id="ICONS" stroke="none" stroke-width="1" fill="none" fill-rule="evenodd" sketch:type="MSPage">
        <path d="M109.246667,0.00786179682 C121.961667,-0.217138203 128.726667,4.4153618 135.191667,10.3078618 C140.679167,9.8378618 147.809167,6.7703618 152.009167,4.6403618 C153.369167,3.8928618 154.731667,3.1478618 156.091667,2.4053618 C153.694167,8.8878618 150.441667,13.9603618 145.441667,17.8128618 C144.331667,18.6678618 143.229167,19.8228618 141.839167,20.3678618 L141.839167,20.4478618 C148.961667,20.3753618 154.836667,17.1603618 160.416667,15.4178618 L160.416667,15.4978618 C157.486667,20.1578618 153.519167,24.8828618 149.286667,28.2728618 C147.576667,29.6303618 145.869167,30.9853618 144.161667,32.3428618 C144.254167,39.8853618 144.049167,47.0828618 142.639167,53.4203618 C134.441667,90.2678618 112.719167,115.280362 78.3341667,125.995362 C65.9866667,129.842862 46.0341667,131.425362 31.8891667,127.912862 C24.8741667,126.170362 18.5366667,124.205362 12.5891667,121.605362 C9.28666667,120.160362 6.22666667,118.597862 3.29916667,116.815362 C2.33916667,116.227862 1.37666667,115.642862 0.416666667,115.057862 C3.60666667,115.152862 7.34166667,116.032862 10.9066667,115.457862 C14.1341667,114.935362 17.2991667,115.072862 20.2766667,114.420362 C27.7016667,112.790362 34.2966667,110.635362 39.9766667,107.312862 C42.7291667,105.702862 46.9091667,103.810362 48.8666667,101.485362 C45.1766667,101.552862 41.8341667,100.695362 39.0966667,99.7278618 C28.4766667,95.9803618 22.2966667,89.0853618 18.2741667,78.7303618 C21.4916667,79.0828618 30.7616667,79.9203618 32.9291667,78.0928618 C28.8791667,77.8678618 24.9841667,75.5228618 22.1991667,73.7803618 C13.6566667,68.4353618 6.69166667,59.4703618 6.74416667,45.6778618 C7.86416667,46.2103618 8.98666667,46.7403618 10.1066667,47.2728618 C12.2516667,48.1778618 14.4341667,48.6628618 16.9941667,49.1903618 C18.0741667,49.4128618 20.2366667,50.0503618 21.4791667,49.5878618 L21.3166667,49.5878618 C19.6641667,47.6653618 16.9716667,46.3828618 15.3116667,44.3203618 C9.83166667,37.5078618 4.69666667,27.0253618 7.94416667,14.5403618 C8.76916667,11.3728618 10.0741667,8.5753618 11.4691667,5.9953618 C11.5216667,6.0228618 11.5741667,6.0503618 11.6291667,6.0753618 C12.2666667,7.4128618 13.6891667,8.3928618 14.5916667,9.5103618 C17.3891667,12.9778618 20.8416667,16.0978618 24.3616667,18.8503618 C36.3491667,28.2253618 47.1416667,33.9853618 64.4816667,38.2528618 C68.8791667,39.3328618 73.9616667,40.1603618 79.2166667,40.1678618 C77.7391667,35.8703618 78.2141667,28.9178618 79.3766667,24.7578618 C82.2966667,14.3003618 88.6441667,6.7628618 97.9541667,2.7228618 C100.181667,1.7578618 102.649167,1.0528618 105.241667,0.487861797 C106.576667,0.327861797 107.911667,0.167861797 109.246667,0.00786179682" id="Imported-Layers" fill="#FFFFFF" sketch:type="MSShapeGroup"></path>
    </g>
</svg>